/* XPM */
static char * add_point_xpm[] = {
"24 23 3 1",
" 	c None",
".	c #000000",
"+	c #FFFFFF",
"                        ",
"                        ",
"                        ",
"                        ",
"                        ",
"                        ",
"                        ",
"                 .......",
".....   .....    .+++++.",
".+++.   .+++.    .++.++.",
".+++.....+++......+...+.",
".+++.   .+++.    .++.++.",
".....   .....    .+++++.",
"                 .......",
"                        ",
"                        ",
"                        ",
"                        ",
"                        ",
"                        ",
"                        ",
"                        ",
"                        "};
