/* XPM */
static char * anim_preview_xpm[] = {
"24 24 9 1",
" 	c None",
".	c #D5D6D5",
"+	c #8B898B",
"@	c #C5C6C5",
"#	c #FFFF73",
"$	c #FFFFFF",
"%	c #FFFFBD",
"&	c #000000",
"*	c #FFFF00",
"                        ",
"                        ",
"                        ",
"                        ",
"                        ",
"         .+@.           ",
"        .@##+@@         ",
"      @@$+%%##++        ",
"     @%%@@##%+##+++     ",
"    .@%#%+#%#+#####+    ",
"   @@@%%%@+@@+###&&+    ",
"  @%%@#%#%#@ +##&**&&&  ",
"  @%%@@@@@@@ +++&*****& ",
"  @%%%%%@.      &*****& ",
"  @%%%%%@       &*****& ",
"  @@@@@@@       &&&&&&& ",
"                        ",
"                        ",
"                        ",
"                        ",
"                        ",
"                        ",
"                        ",
"                        "};
