/* XPM */
static char * delete_point_xpm[] = {
"24 24 4 1",
" 	c None",
".	c #000000",
"+	c #EED680",
"@	c #FFFFFF",
"                        ",
"                        ",
"                        ",
"                        ",
"                        ",
"                        ",
"                        ",
"                        ",
"         .......        ",
" .....   .+++++.   .....",
" .@@@.   .+++++.   .@@@.",
" .@@@.....+...+.....@@@.",
" .@@@.   .+++++.   .@@@.",
" .....   .+++++.   .....",
"         .......        ",
"                        ",
"                        ",
"                        ",
"                        ",
"                        ",
"                        ",
"                        ",
"                        ",
"                        "};
