/* XPM */
static char * delete_all_points_xpm[] = {
"24 24 3 1",
" 	c None",
".	c #000000",
"+	c #EED680",
"                        ",
"                        ",
"                        ",
"                        ",
"                        ",
"                        ",
"                        ",
"                        ",
" ....... ....... .......",
" .+++++. .+++++. .+++++.",
" .+++++. .+++++. .+++++.",
" .+...+...+...+...+...+.",
" .+++++. .+++++. .+++++.",
" .+++++. .+++++. .+++++.",
" ....... ....... .......",
"                        ",
"                        ",
"                        ",
"                        ",
"                        ",
"                        ",
"                        ",
"                        ",
"                        "};
