/* XPM */
static char * last_point_xpm[] = {
"24 24 35 1",
" 	c None",
".	c #000000",
"+	c #CDDECB",
"@	c #B1C9B0",
"#	c #B5CEB5",
"$	c #7EAB78",
"%	c #B2C9B0",
"&	c #BBD0B9",
"*	c #B9CEB7",
"=	c #BAD1BA",
"-	c #B4CBB2",
";	c #698267",
">	c #A9C4A7",
",	c #AEC7AC",
"'	c #AAC5A8",
")	c #B0C9B0",
"!	c #B3CAB1",
"~	c #AAC7A8",
"{	c #678C63",
"]	c #ADC8AB",
"^	c #ADC6AB",
"/	c #B0C7AE",
"(	c #CFDFCC",
"_	c #2D2D2D",
":	c #4A6342",
"<	c #5B7950",
"[	c #3C5235",
"}	c #415639",
"|	c #3B5035",
"1	c #E4EAE6",
"2	c #FCFCFC",
"3	c #CBC7DC",
"4	c #F6F5F8",
"5	c #C5D2C8",
"6	c #ADA7C8",
"                        ",
"                        ",
"         .      ...     ",
"         ..     .+.     ",
"         .+.    .@.     ",
"   .......@+.   .#.     ",
"   .$%&*=*#-+.  .#.     ",
"   .;>,'',)!~+. .).     ",
"   .{],,,~^^/](_.^.     ",
"   .:<<<<<<<<[. .<.     ",
"   .}|||||<<[.  .<.     ",
"   .......<[.   .<.     ",
"         .[.    .<.     ",
"         ..     .[.     ",
"         .      ...     ",
"                        ",
"                        ",
".....    .....    ..... ",
".112.    .112.    .334. ",
".551......551......663. ",
".551.    .551.    .663. ",
".....    .....    ..... ",
"                        ",
"                        "};
