/* XPM */
static char * reset_point_xpm[] = {
"24 23 20 1",
" 	c None",
".	c #000000",
"+	c #A8AFA0",
"@	c #DEE6D6",
"#	c #CCDCB8",
"$	c #BDD2A1",
"%	c #BAD09D",
"&	c #9FA498",
"*	c #9BB46F",
"=	c #7C9B40",
"-	c #728E3A",
";	c #B1C491",
">	c #50652A",
",	c #35431B",
"'	c #9CB476",
")	c #6B7957",
"!	c #FFFFFF",
"~	c #F4EAD4",
"{	c #DEB355",
"]	c #D1940C",
"                        ",
"          .             ",
"        ..+.            ",
"       .@#$%.           ",
"      .&*==-.           ",
"      .;>.,.            ",
"      .'. .     .       ",
"      .).       ..      ",
"       ..       .@.     ",
"        .     . .=.     ",
"             .@.>=.     ",
"            .@===>.     ",
"            .'=>>.      ",
"             .'..       ",
"              .         ",
"                        ",
"                        ",
".....     .....    .....",
".!!!.     .~{{.    .!!!.",
".!!!.......{]]......!!!.",
".!!!.     .{]].    .!!!.",
".....     .....    .....",
"                        "};
