/* XPM */
static char * source_image_xpm[] = {
"24 22 123 2",
"  	c None",
". 	c #000000",
"+ 	c #FFFFFF",
"@ 	c #FDFDFD",
"# 	c #FBFBFB",
"$ 	c #FAFAFA",
"% 	c #F8F8F8",
"& 	c #F6F6F6",
"* 	c #F4F4F4",
"= 	c #F2F2F2",
"- 	c #F1F1F1",
"; 	c #EFEFEF",
"> 	c #EDEDED",
", 	c #EBEBEB",
"' 	c #CECECE",
") 	c #B6B6B6",
"! 	c #3C3C3C",
"~ 	c #3E3E3F",
"{ 	c #3E3E3E",
"] 	c #3D3D3D",
"^ 	c #BBBBBB",
"/ 	c #393B3C",
"( 	c #6A6D6F",
"_ 	c #6C6F70",
": 	c #585858",
"< 	c #767675",
"[ 	c #61605E",
"} 	c #757471",
"| 	c #5C5C59",
"1 	c #868681",
"2 	c #4E4D49",
"3 	c #F3F3F3",
"4 	c #45423E",
"5 	c #807A73",
"6 	c #847D76",
"7 	c #847C72",
"8 	c #6C645B",
"9 	c #6D665C",
"0 	c #827A6C",
"a 	c #999282",
"b 	c #938C7C",
"c 	c #4A463E",
"d 	c #544A3E",
"e 	c #9C8A73",
"f 	c #A49177",
"g 	c #A9967B",
"h 	c #AC987C",
"i 	c #695B49",
"j 	c #BAA88A",
"k 	c #7E705A",
"l 	c #A49277",
"m 	c #615646",
"n 	c #77A16E",
"o 	c #645038",
"p 	c #BA9668",
"q 	c #C19D6C",
"r 	c #C8A472",
"s 	c #CDAA76",
"t 	c #766040",
"u 	c #D3B07A",
"v 	c #614E36",
"w 	c #6F5E41",
"x 	c #211C14",
"y 	c #ACC8A9",
"z 	c #709867",
"A 	c #785227",
"B 	c #DB974A",
"C 	c #E1A050",
"D 	c #E7A753",
"E 	c #ECAD56",
"F 	c #DCA651",
"G 	c #78582A",
"H 	c #E7C475",
"I 	c #D1BC81",
"J 	c #B1BA99",
"K 	c #C2D7BE",
"L 	c #B2CBB0",
"M 	c #AAC7A8",
"N 	c #0F1308",
"O 	c #31190A",
"P 	c #502A11",
"Q 	c #6E3B18",
"R 	c #6A3E1B",
"S 	c #663F1D",
"T 	c #60401E",
"U 	c #33240E",
"V 	c #70613F",
"W 	c #867E60",
"X 	c #8E9F82",
"Y 	c #ABC7A8",
"Z 	c #AAC6A7",
"` 	c #A8C6A5",
" .	c #ADC8AD",
"..	c #A8C7A8",
"+.	c #A5C4A3",
"@.	c #7F9F76",
"#.	c #828282",
"$.	c #858584",
"%.	c #858484",
"&.	c #848484",
"*.	c #8C928B",
"=.	c #97A596",
"-.	c #9FB69D",
";.	c #A9C7A6",
">.	c #AFC8AD",
",.	c #A4C3A2",
"'.	c #6B9060",
").	c #E9E9E9",
"!.	c #E7E7E7",
"~.	c #E6E6E6",
"{.	c #E4E4E4",
"].	c #E2E2E2",
"^.	c #E0E0E0",
"/.	c #C1C7BE",
"(.	c #9CAB96",
"_.	c #7B9172",
":.	c #5B7950",
"<.	c #445B2C",
"[.	c #D4D4D4",
"}.	c #B3BAB1",
"|.	c #8F9C8A",
"1.	c #6F8368",
"2.	c #506B46",
"                                                ",
"                                                ",
"                                                ",
"    . . . . . . . . . . . . . .                 ",
"  . + + + + + + + + + + + + + + .               ",
"  . + + @ # $ % & * = - ; > , ' .               ",
"  . + ) ! ~ { { { ] ] { { ] , ' .               ",
"  . + ^ / ( _ : < [ } | 1 2 3 ' .               ",
"  . + ^ 4 5 6 7 8 9 0 a b c = ' . .             ",
"  . + ^ d e f g h i j k l m - ' . n .           ",
"  . + ^ o p q r s t u v w x . . . y z .         ",
"  . + ^ A B C D E F G H I J K K K L M z N       ",
"  . + ^ O P Q R S T U V W X Y Z `  ...+.@..     ",
"  . + ' #.$.$.%.&.&.&.*.=.-.` ;.Y M Y >.,.'..   ",
"  . + & , ).!.~.{.].^./.(._.:.:.:.:.:.:.<..     ",
"  . [.' ' ' ' ' ' ' ' }.|.1.2.2.2.:.:.<..       ",
"    . . . . . . . . . . . . . . . :.<..         ",
"                                . <..           ",
"                                . .             ",
"                                .               ",
"                                                ",
"                                                "};
