/* XPM */
static char * stepmode_xpm[] = {
"24 24 15 1",
" 	c None",
".	c #000000",
"+	c #FFFFFF",
"@	c #E4C276",
"#	c #D1940C",
"$	c #9B6D08",
"%	c #E0B961",
"&	c #F0E0BC",
"*	c #E7CA88",
"=	c #232323",
"-	c #EEDCB2",
";	c #A38135",
">	c #D7A22D",
",	c #B47F0A",
"'	c #DCAE49",
"                        ",
"   ......... .....      ",
"   .+++++++. .@@@@..    ",
"  .......... .#####.    ",
"  .+++++++.  ....$##.   ",
"  .........      .%#.   ",
"  .+++++++.      .%#.   ",
"  .........      .%#.   ",
"  .+++++++.      .%#.   ",
"  .........      .%#.   ",
"                 .%#.   ",
"      ..         .%#.   ",
"     .&*.        .%#.   ",
"    .&@##.       .%#.   ",
"   =-@%###.      .%#.   ",
"  ....%#....     .%#.   ",
"     .%#.        .@#.   ",
"     .%#.........;>,.   ",
"     .%#%''''''''%,.    ",
"      .##########,..    ",
"       ...........      ",
"                        ",
"                        ",
"                        "};
